<?xml version="1.0" encoding="UTF-8"?>
<!DOCTYPE svg PUBLIC "-//W3C//DTD SVG 1.1//EN" "http://www.w3.org/Graphics/SVG/1.1/DTD/svg11.dtd">
<!-- Creator: CorelDRAW -->
<svg xmlns="http://www.w3.org/2000/svg" xml:space="preserve" width="457px" height="97px" version="1.1" style="shape-rendering:geometricPrecision; text-rendering:geometricPrecision; image-rendering:optimizeQuality; fill-rule:evenodd; clip-rule:evenodd"
viewBox="0 0 385.5 81.57"
 xmlns:xlink="http://www.w3.org/1999/xlink"
 xmlns:xodm="http://www.corel.com/coreldraw/odm/2003">
 <defs>
  <style type="text/css">
   <![CDATA[
    .fil7 {fill:none}
    .fil4 {fill:#FEFEFE;fill-rule:nonzero}
    .fil1 {fill:#FAA841;fill-rule:nonzero}
    .fil0 {fill:#F68D3D;fill-rule:nonzero}
    .fil2 {fill:#F3743E;fill-rule:nonzero}
    .fil3 {fill:#F1613D;fill-rule:nonzero}
    .fil6 {fill:#F1613D;fill-rule:nonzero}
    .fil5 {fill:url(#id0);fill-rule:nonzero}
   ]]>
  </style>
  <linearGradient id="id0" gradientUnits="userSpaceOnUse" x1="225.28" y1="10.02" x2="225.23" y2="54.03">
   <stop offset="0" style="stop-opacity:1; stop-color:#F1613D"/>
   <stop offset="1" style="stop-opacity:1; stop-color:#F68D3D"/>
  </linearGradient>
 </defs>
 <g id="Camada_x0020_1">
  <metadata id="CorelCorpID_0Corel-Layer"/>
  <g id="_1603306411520">
   <g>
    <path class="fil0" d="M61.67 25.07c0,0 0,3.46 0,3.5 0,2.23 -3.5,2.27 -3.5,0 0,0 0,-10.34 0,-10.38 0,-3.54 -5.53,-3.59 -5.53,0 0,0 0,6.83 0,6.88 0,2.22 -3.5,2.27 -3.5,0 0,0 0,-11.57 0,-11.62 0,-3.54 -5.53,-3.58 -5.53,0 0,0 0,4.31 0,4.32 0,2.2 -3.5,2.31 -3.5,0 0,0 0,-9 0,-9.02 0,-3.44 -5.54,-3.6 -5.54,0 0,0 0,8.99 0,9.02 0,2.25 -3.49,2.27 -3.49,0 0,0 0,-4.29 0,-4.32 0,-3.53 -5.54,-3.59 -5.54,0 0,0 0,10.74 0,10.8 0,2.24 -3.49,2.28 -3.49,0 0,0 0,-6.03 0,-6.06 0,-3.55 -5.53,-3.58 -5.53,0 0,0 0,21.91 0,21.96 0,2.23 -3.5,2.28 -3.5,0 0,0 0,-15.07 0,-15.08 0,-3.43 -5.54,-3.58 -5.54,0 0,31.45 0,31.45 0,31.02 0,3.54 5.54,3.59 5.54,0 0,0 0,-3.03 0,-3.06 0,-2.23 3.5,-2.27 3.5,0 0,0 0,9.9 0,9.94 0,3.54 5.53,3.59 5.53,0 0,0 0,-6.39 0,-6.45 0,-2.22 3.5,-2.26 3.5,0 0,0 0,11.14 0,11.19 0,3.54 5.53,3.58 5.53,0 0,0 0,-3.88 0,-3.89 0,-2.2 3.49,-2.31 3.49,0 0,0 0,8.57 0,8.59 0,3.44 5.54,3.6 5.54,0 0,0 0,-8.55 0,-8.59 0,-2.25 3.5,-2.27 3.5,0 0,0 0,3.86 0,3.89 0,3.53 5.53,3.59 5.53,0 0,0 0,-10.31 0,-10.37 0,-2.23 3.5,-2.27 3.5,0 0,0 0,5.6 0,5.63 0,3.55 5.53,3.58 5.53,0 0,0 0,-21.04 0,-21.1 0,-2.23 3.5,-2.27 3.5,0 0,0 0,14.21 0,14.22 0,3.43 5.53,3.58 5.53,0 0,0 0,-31.02 0,-31.02 0,-3.54 -5.53,-3.59 -5.53,0z"/>
    <path class="fil1" d="M37.39 74.39c-1.19,0.02 -2.38,-0.63 -2.38,-1.98 0,0 0,-8.56 0,-8.59 0,-2.75 -4.37,-2.77 -4.37,0 0,0 0,3.88 0,3.89 0,2.91 -4.66,2.93 -4.66,0 0,0 0,-11.16 0,-11.19 0,-2.66 -4.37,-2.77 -4.37,0 0,0 0,6.43 0,6.45 0,2.91 -4.66,2.94 -4.66,0 0,0 0,-9.91 0,-9.94 0,-2.75 -4.37,-2.78 -4.37,0 0,0 0,3.05 0,3.06 0,2.88 -4.66,2.97 -4.66,0 0,0 0,-30.93 0,-31.02 0,-2.78 4.66,-2.92 4.66,0 0,0 0,15.04 0,15.08 0,2.76 4.37,2.78 4.37,0 0,0 0,-21.9 0,-21.96 0,-2.88 4.66,-2.94 4.66,0 0,0 0,6.04 0,6.06 0,2.76 4.37,2.78 4.37,0 0,0 0,-10.78 0,-10.8 0,-2.82 4.66,-2.92 4.66,0 0,0 0,4.3 0,4.32 0,2.76 4.37,2.79 4.37,0 0,0 0,-9.01 0,-9.02 0,-2.82 4.67,-2.88 4.67,0 0,0 0,9.02 0,9.02 0,2.72 4.36,2.8 4.36,0 0,0 0,-4.31 0,-4.32 0,-2.9 4.66,-2.94 4.66,0 0,0 0,11.57 0,11.62 0,2.76 4.37,2.76 4.37,0 0,0 0,-6.88 0,-6.88 0,-2.83 4.66,-2.92 4.66,0 0,0 0,10.34 0,10.38 0,2.76 4.37,2.77 4.37,0 0,0 0,-3.49 0,-3.5 0,-2.9 4.67,-2.94 4.67,0 0,0 0,30.95 0,31.02 0,2.85 -4.67,2.88 -4.67,0 0,0 0,-14.17 0,-14.22 0,-2.74 -4.36,-2.77 -4.36,0 0,0 0,21.04 0,21.1 0,2.92 -4.67,2.94 -4.67,0 0,0 0,-5.61 0,-5.63 0,-2.74 -4.36,-2.78 -4.36,0 0,0 0,10.34 0,10.37 0,2.83 -4.67,2.95 -4.67,0 0,0 0,-3.88 0,-3.89 0,-2.75 -4.36,-2.78 -4.36,0 0,0 0,8.53 0,8.59 0,1.29 -1.14,1.95 -2.29,1.98z"/>
    <path class="fil0" d="M35 18c-0.24,2.55 -4.36,2.45 -4.36,-0.23 0,-0.02 0,-4.32 0,-4.32 0,-2.92 -4.66,-2.82 -4.66,0 0,0.02 0,10.8 0,10.8 0,2.78 -4.37,2.76 -4.37,0 0,-0.02 0,-6.06 0,-6.06 0,-2.94 -4.66,-2.88 -4.66,0 0,0.06 0,21.96 0,21.96 0,2.78 -4.37,2.76 -4.37,0 0,-0.04 0,-15.08 0,-15.08 0,-2.92 -4.66,-2.78 -4.66,0 0,0.09 0,31.02 0,31.02 0,2.97 4.66,2.88 4.66,0 0,-0.01 0,-3.06 0,-3.06 0,-2.78 4.37,-2.75 4.37,0 0,0.03 0,9.94 0,9.94 0,2.94 4.66,2.91 4.66,0 0,-0.02 0,-6.45 0,-6.45 0,-2.77 4.37,-2.66 4.37,0 0,0.03 0,11.19 0,11.19 0,2.93 4.66,2.91 4.66,0 0,-0.01 0,-3.89 0,-3.89 0,-2.77 4.37,-2.75 4.37,0l0 8.59c0,1.35 1.19,2 2.38,1.98 1.15,-0.03 2.29,-0.69 2.29,-1.98 0,-0.06 0,-8.59 0,-8.59 0,-2.78 4.36,-2.75 4.36,0 0,0.01 0,3.89 0,3.89 0,2.95 4.67,2.83 4.67,0 0,-0.03 0,-10.37 0,-10.37 0,-2.78 4.36,-2.74 4.36,0 0,0.02 0,5.63 0,5.63 0,2.94 4.67,2.92 4.67,0 0,-0.06 0,-21.1 0,-21.1 0,-2.77 4.36,-2.74 4.36,0 0,0.05 0,14.22 0,14.22 0,2.88 4.67,2.85 4.67,0l0 -17.94c-13.44,-1.1 -25.2,-8.98 -31.77,-20.15z"/>
    <path class="fil2" d="M53.94 47.8c-16.3,0 -30.61,-10.04 -36.99,-24.18 0,6.5 0,16.53 0,16.53 0,2.78 -4.37,2.76 -4.37,0 0,-0.04 0,-15.08 0,-15.08 0,-2.92 -4.66,-2.78 -4.66,0 0,0.09 0,31.02 0,31.02 0,2.97 4.66,2.88 4.66,0 0,-0.01 0,-3.06 0,-3.06 0,-2.78 4.37,-2.75 4.37,0 0,0.03 0,9.94 0,9.94 0,2.94 4.66,2.91 4.66,0 0,-0.02 0,-6.45 0,-6.45 0,-2.77 4.37,-2.66 4.37,0 0,0.03 0,11.19 0,11.19 0,2.93 4.66,2.91 4.66,0 0,-0.01 0,-3.89 0,-3.89 0,-2.77 4.37,-2.75 4.37,0l0 8.59c0,1.35 1.19,2 2.38,1.98 1.15,-0.03 2.29,-0.69 2.29,-1.98 0,-0.06 0,-8.59 0,-8.59 0,-2.78 4.36,-2.75 4.36,0 0,0.01 0,3.89 0,3.89 0,2.95 4.67,2.83 4.67,0 0,-0.03 0,-10.37 0,-10.37 0,-2.78 4.36,-2.74 4.36,0 0,0.02 0,5.63 0,5.63 0,2.94 4.67,2.92 4.67,0l0 -15.35c-1.26,0.12 -2.52,0.18 -3.8,0.18z"/>
    <path class="fil2" d="M62.1 46.95c0,4.08 0,9.14 0,9.14 0,2.88 4.67,2.85 4.67,0l0 -10.42c-1.52,0.52 -3.08,0.95 -4.67,1.28z"/>
    <path class="fil3" d="M44.85 59.06c-16.25,0 -30.52,-9.97 -36.93,-24.04 0,9.07 0,21.07 0,21.07 0,2.97 4.66,2.88 4.66,0 0,-0.01 0,-3.06 0,-3.06 0,-2.78 4.37,-2.75 4.37,0 0,0.03 0,9.94 0,9.94 0,2.94 4.66,2.91 4.66,0 0,-0.02 0,-6.45 0,-6.45 0,-2.77 4.37,-2.66 4.37,0 0,0.03 0,11.19 0,11.19 0,2.93 4.66,2.91 4.66,0 0,-0.01 0,-3.89 0,-3.89 0,-2.77 4.37,-2.75 4.37,0l0 8.59c0,1.35 1.19,2 2.38,1.98 1.15,-0.03 2.29,-0.69 2.29,-1.98 0,-0.06 0,-8.59 0,-8.59 0,-2.78 4.36,-2.75 4.36,0 0,0.01 0,3.89 0,3.89 0,2.95 4.67,2.83 4.67,0l0 -8.84c-1.28,0.13 -2.56,0.19 -3.86,0.19z"/>
    <path class="fil3" d="M62.1 55.11c0,0.61 0,0.98 0,0.98 0,2.88 4.67,2.85 4.67,0l0 -3.62c-1.5,0.98 -3.06,1.86 -4.67,2.64z"/>
    <path class="fil3" d="M53.07 58.2c0,1.57 0,4.77 0,4.77 0,2.94 4.67,2.92 4.67,0l0 -6.07c-1.52,0.53 -3.08,0.96 -4.67,1.3z"/>
    <path class="fil4" d="M34.01 28.5l15.14 8.74c2.57,1.48 2.57,5.2 0,6.68l-15.14 8.74c-2.57,1.49 -5.78,-0.37 -5.78,-3.34l0 -17.48c0,-2.97 3.21,-4.82 5.78,-3.34z"/>
   </g>
   <path class="fil5" d="M97.24 12.34l-25.08 0 0 6.24 9.16 0 0 24.9 6.76 0 0 -24.9 9.16 0 0 -6.24zm12.35 31.74c4.86,0 8.66,-2.36 10.65,-6.48l-5.05 -2.54c-1.06,2.12 -3.14,3.33 -5.64,3.33 -3.29,0 -5.65,-2.04 -6.11,-5.09l17.03 0 0 -1.95c0,-6.24 -4.21,-11.61 -11.48,-11.61 -7.08,0 -11.89,5.46 -11.89,12.08 0,7.31 5.37,12.26 12.49,12.26zm-5.87 -14.44c0.46,-2.31 2.36,-4.16 5.23,-4.16 2.77,0 4.72,1.8 4.99,4.16l-10.22 0zm22.49 -19.62l0 33.46 6.57 0 0 -33.46 -6.57 0zm24.34 34.06c4.86,0 8.65,-2.36 10.64,-6.48l-5.04 -2.54c-1.07,2.12 -3.15,3.33 -5.65,3.33 -3.28,0 -5.64,-2.04 -6.11,-5.09l17.03 0 0 -1.95c0,-6.24 -4.21,-11.61 -11.48,-11.61 -7.07,0 -11.89,5.46 -11.89,12.08 0,7.31 5.37,12.26 12.5,12.26zm-5.88 -14.44c0.46,-2.31 2.36,-4.16 5.23,-4.16 2.77,0 4.72,1.8 5,4.16l-10.23 0zm28.13 24.39l0 -12.03c1.72,1.29 3.89,2.13 6.2,2.13 7.13,0 12.03,-5 12.03,-12.17 0,-6.58 -5.32,-12.04 -12.4,-12.04 -7.12,0 -12.4,5.14 -12.4,12.04l0 22.07 6.57 0zm5.83 -16.1c-3.37,0 -5.83,-2.69 -5.83,-5.93 0,-3.24 2.46,-5.87 5.83,-5.87 3.38,0 5.84,2.63 5.84,5.87 0,3.24 -2.46,5.93 -5.84,5.93zm23.37 5.55l0 -12.91c0,-2.73 1.58,-4.4 4.17,-4.4 1.2,0 2.54,0.33 3.65,0.97l0 -6.38c-1.16,-0.51 -2.77,-0.79 -4.26,-0.79 -6.8,0 -10.13,4.49 -10.13,10.37l0 13.14 6.57 0zm22.26 0.6c7.03,0 12.45,-5.46 12.45,-12.12 0,-6.58 -5.37,-12.08 -12.45,-12.08 -6.99,0 -12.4,5.46 -12.4,12.08 0,6.66 5.36,12.12 12.4,12.12zm0 -6.15c-3.38,0 -5.83,-2.69 -5.83,-5.93 0,-3.24 2.45,-5.92 5.83,-5.92 3.38,0 5.87,2.68 5.87,5.92 0,3.24 -2.49,5.93 -5.87,5.93zm45.67 -18.19c-4.12,0 -7.36,1.94 -8.79,5.09 -1.34,-3.15 -4.54,-5.09 -8.93,-5.09 -7.41,0 -11.15,5.37 -11.15,11.75l0 11.99 6.57 0 0 -10.92c0,-3.47 1.43,-6.43 5.09,-6.43 3.56,0 5.09,2.91 5.09,6.43l0 10.92 6.57 0 0 -10.97c0,-3.47 1.52,-6.38 5.09,-6.38 3.61,0 5.13,2.96 5.13,6.47l0 10.88 6.57 0 0 -11.99c0,-6.38 -3.79,-11.75 -11.24,-11.75zm23.32 34.29l0 -12.03c1.71,1.29 3.89,2.13 6.2,2.13 7.13,0 12.03,-5 12.03,-12.17 0,-6.58 -5.32,-12.04 -12.4,-12.04 -7.13,0 -12.4,5.14 -12.4,12.04l0 22.07 6.57 0zm5.83 -16.1c-3.38,0 -5.83,-2.69 -5.83,-5.93 0,-3.24 2.45,-5.87 5.83,-5.87 3.38,0 5.83,2.63 5.83,5.87 0,3.24 -2.45,5.93 -5.83,5.93zm28.6 6.2c1.62,0 3.6,-0.37 4.76,-1.12l0 -5.87c-1.11,0.69 -2.82,1.11 -4.16,1.11 -2.41,0 -3.94,-1.48 -3.94,-4.03l0 -8.09 8.1 0 0 -5.56 -8.1 0 0 -5.83 -6.57 0 0 5.83 -4.21 0 0 5.56 4.21 0 0 8.28c0,5.74 3.29,9.72 9.91,9.72zm20.59 -0.05c4.86,0 8.65,-2.36 10.64,-6.48l-5.04 -2.54c-1.07,2.12 -3.15,3.33 -5.65,3.33 -3.28,0 -5.64,-2.04 -6.11,-5.09l17.03 0 0 -1.95c0,-6.24 -4.21,-11.61 -11.47,-11.61 -7.08,0 -11.9,5.46 -11.9,12.08 0,7.31 5.37,12.26 12.5,12.26zm-5.88 -14.44c0.46,-2.31 2.36,-4.16 5.23,-4.16 2.78,0 4.72,1.8 5,4.16l-10.23 0zm28.13 13.84l0 -12.91c0,-2.73 1.58,-4.4 4.17,-4.4 1.2,0 2.54,0.33 3.65,0.97l0 -6.38c-1.15,-0.51 -2.77,-0.79 -4.25,-0.79 -6.8,0 -10.14,4.49 -10.14,10.37l0 13.14 6.57 0z"/>
   <path class="fil6" d="M322.53 69.64l0 -7.43 9.56 0 0 -1.6 -9.56 0 0 -7.22 10.18 0 0 -1.6 -10.18 0c-1.28,0 -1.71,0.64 -1.71,1.68l0 16.17 1.71 0zm20.06 -15.34l3.07 -3.76 -1.76 0 -3.05 3.76 1.74 0zm-1.15 15.6c2.46,0 4.46,-1.33 5.45,-3.28l0 3.02 1.58 0 0 -6.52c0,-3.8 -2.99,-6.73 -6.81,-6.73 -3.88,0 -6.79,3.04 -6.79,6.73 0,3.74 2.83,6.78 6.57,6.78zm0.22 -1.57c-2.86,0 -5.13,-2.35 -5.13,-5.18 0,-2.84 2.27,-5.19 5.13,-5.19 2.88,0 5.15,2.35 5.15,5.19 0,2.83 -2.27,5.18 -5.15,5.18zm16.75 1.57c2.29,0 4.38,-1.01 5.58,-3.2l-1.39 -0.78c-0.93,1.63 -2.46,2.41 -4.19,2.41 -2.68,0 -4.95,-2.35 -4.95,-5.18 0,-2.84 2.27,-5.19 4.95,-5.19 1.73,0 3.26,0.78 4.19,2.43l1.39 -0.8c-1.2,-2.19 -3.29,-3.2 -5.58,-3.2 -3.58,0 -6.6,3.01 -6.6,6.76 0,3.73 3.02,6.78 6.6,6.75zm10.01 -16.35c0.67,0 1.18,-0.53 1.18,-1.22 0,-0.7 -0.51,-1.23 -1.18,-1.23 -0.66,0 -1.2,0.53 -1.2,1.23 0,0.69 0.54,1.22 1.2,1.22zm-0.83 3.13l0 12.96 1.66 0 0 -12.96 -1.66 0zm6.82 -5.96l0 18.92 1.65 0 0 -18.92 -1.65 0z"/>
  </g>
  <rect class="fil7" width="385.5" height="81.57"/>
 </g>
</svg>
